Coordinates
version=1
nRows=11
nColumns=40
inDegrees=yes

Units are S.I. units (second, meters, Newtons, ...)
Angles are in degrees.

endheader
time	pelvis_tilt	pelvis_list	pelvis_rotation	pelvis_tx	pelvis_ty	pelvis_tz	hip_flexion_r	hip_adduction_r	hip_rotation_r	knee_angle_r	knee_angle_r_beta	ankle_angle_r	subtalar_angle_r	mtp_angle_r	hip_flexion_l	hip_adduction_l	hip_rotation_l	knee_angle_l	knee_angle_l_beta	ankle_angle_l	subtalar_angle_l	mtp_angle_l	lumbar_extension	lumbar_bending	lumbar_rotation	arm_flex_r	arm_add_r	arm_rot_r	elbow_flex_r	pro_sup_r	wrist_flex_r	wrist_dev_r	arm_flex_l	arm_add_l	arm_rot_l	elbow_flex_l	pro_sup_l	wrist_flex_l	wrist_dev_l
      2.37000000	      3.09147924	     -7.34815634	      4.99091302	      0.66474861	      0.89290910	      1.00649250	      8.49390601	      9.02035789	    -21.34718289	    -20.04930592	     -0.34992640	      5.45196051	      3.07932585	     -4.48435432	      0.90216664	     14.72035772	      9.46480654	    -51.98372524	     -0.90728716	     -5.78762458	      3.67198208	     -8.43235315	     -7.46199185	      9.72820921	     -0.56888240	      5.84732403	    -10.80097873	     13.98166063	     16.68540322	     89.95437384	      0.00000000	      0.00000000	      4.52186514	      6.64256805	    -17.28239919	     14.74954221	     89.95437384	      0.00000000	      0.00000000
      2.38000000	      3.48966384	     -7.31494413	      5.14747023	      0.67161916	      0.89331201	      1.00717585	      7.57830171	      9.18301471	    -21.14560414	    -20.05375296	     -0.35000402	      5.97711939	      2.98672539	     -4.49961662	      1.79316219	     14.83270039	      9.07845853	    -53.20561785	     -0.92861321	     -4.88469103	      4.19565939	     -8.62971939	     -7.95009101	      9.68011362	     -0.31915644	      6.28806792	    -10.96270191	     14.05184306	     16.60342742	     89.95437384	      0.00000000	      0.00000000	      4.34353417	      6.74838717	    -17.56198320	     14.49880823	     89.95437384	      0.00000000	      0.00000000
      2.39000000	      3.77192213	     -7.05922563	      5.07645469	      0.67844101	      0.89371615	      1.00792318	      6.82301262	      9.02487639	    -20.99679637	    -20.22033028	     -0.35291134	      6.18266931	      2.86976214	     -4.45957748	      2.69768090	     14.61428657	      8.87714022	    -54.15066562	     -0.94510741	     -4.50742795	      4.23493043	     -8.64300018	     -8.36116250	      9.36607694	      0.15812411	      6.66351225	    -11.13778735	     14.05068977	     16.55153622	     89.95437384	      0.00000000	      0.00000000	      4.06867499	      6.87602382	    -17.69743654	     14.50882270	     89.95437384	      0.00000000	      0.00000000
      2.40000000	      3.98191299	     -7.02841102	      5.44028802	      0.68501846	      0.89399339	      1.00841279	      6.08009343	      9.23218150	    -20.69497237	    -20.06158371	     -0.35014069	      6.84503125	      2.51686209	     -4.43008672	      3.88431289	     14.44887649	      7.95145363	    -55.00811333	     -0.96007269	     -3.00647585	      4.76350870	     -9.15419695	     -8.57560116	      9.31990767	      0.12837728	      7.18802068	    -11.17176980	     13.95304710	     16.22009226	     89.95437384	      0.00000000	      0.00000000	      3.77709084	      7.18763427	    -18.47458104	     14.64940933	     89.95437384	      0.00000000	      0.00000000
      2.41000000	      4.25092047	     -6.83594302	      5.40816567	      0.69189250	      0.89454478	      1.00903123	      5.28901450	      9.16969271	    -20.47365706	    -20.12230901	     -0.35120055	      7.20094716	      2.45016211	     -4.41679162	      4.79210172	     14.12752298	      7.55543039	    -55.55126591	     -0.96955249	     -2.24554718	      4.55634028	     -9.36558294	     -8.87461163	      9.09189082	      0.45605891	      7.70329620	    -11.25860398	     13.92587585	     15.82972754	     89.95437384	      0.00000000	      0.00000000	      3.50404338	      7.33793423	    -18.70649321	     14.61297139	     89.95437384	      0.00000000	      0.00000000
      2.42000000	      4.36517920	     -6.56223915	      5.30141049	      0.69851441	      0.89499838	      1.00966656	      4.70202417	      8.97546045	    -20.29163749	    -20.22614602	     -0.35301284	      7.37307055	      2.33463664	     -4.36249230	      5.82169863	     13.62473544	      7.20201493	    -55.83483932	     -0.97450178	     -1.77418180	      4.28469956	     -9.39058353	     -9.08415237	      8.75809865	      0.94407024	      8.02660630	    -11.42773472	     13.85895767	     15.77120592	     89.95437384	      0.00000000	      0.00000000	      3.24150010	      7.48920384	    -18.72998675	     14.81073984	     89.95437384	      0.00000000	      0.00000000
      2.43000000	      4.51794133	     -6.31045297	      5.38436898	      0.70516733	      0.89552651	      1.01016991	      3.95485446	      8.88901244	    -19.96685051	    -20.08373071	     -0.35052723	      7.92356560	      2.28518999	     -4.36650105	      6.80912110	     13.01813118	      6.51766934	    -55.91668630	     -0.97593028	     -0.44733195	      3.70052643	     -9.73935782	     -9.23818991	      8.44636559	      1.00854500	      8.62836670	    -11.41909128	     13.68852370	     15.29314610	     89.95437384	      0.00000000	      0.00000000	      2.90105051	      7.72207573	    -18.91420371	     14.88332691	     89.95437384	      0.00000000	      0.00000000
      2.44000000	      4.62070881	     -6.05343692	      5.40923845	      0.71179602	      0.89603792	      1.01055837	      3.30014369	      8.75060359	    -19.64362589	    -20.02400864	     -0.34948488	      8.32826755	      2.21895679	     -4.33980225	      7.78905903	     12.36474066	      5.94769775	    -55.78431508	     -0.97361997	      0.62065466	      3.12814330	    -10.03564831	     -9.35240653	      8.14601146	      1.16091286	      9.13774945	    -11.43764351	     13.43855225	     14.93328497	     89.95437384	      0.00000000	      0.00000000	      2.56405319	      7.91431505	    -19.20527235	     15.00720377	     89.95437384	      0.00000000	      0.00000000
      2.45000000	      4.93411507	     -5.79121813	      5.41560914	      0.71848334	      0.89685469	      1.01118059	      2.36738635	      8.69281836	    -19.33147856	    -19.81264846	     -0.34579595	      8.44396123	      1.71744651	     -4.21294372	      8.43979919	     11.77014772	      5.49562991	    -55.34860683	     -0.96601543	      1.41292923	      2.44540483	    -11.63316232	     -9.71765923	      7.81104529	      1.51912221	      9.53203951	    -11.31759967	     11.95441065	     14.65953834	     89.95437384	      0.00000000	      0.00000000	      2.20658744	      8.48544608	    -21.29937931	     15.65132684	     89.95437384	      0.00000000	      0.00000000
      2.46000000	      4.88405174	     -5.54136833	      5.29581741	      0.72495672	      0.89711388	      1.01167686	      1.93239229	      8.51492909	    -19.02777253	    -19.83106349	     -0.34611735	      8.71707680	      1.64445532	     -4.18135317	      9.52289461	     11.13157315	      5.19753583	    -54.91330477	     -0.95841797	      2.42431683	      2.12681938	    -11.77084397	     -9.68767827	      7.48996309	      1.80055586	      9.90784512	    -11.42355663	     11.84940980	     14.58373795	     89.95437384	      0.00000000	      0.00000000	      1.87014454	      8.64703775	    -21.22541527	     15.86460286	     89.95437384	      0.00000000	      0.00000000
      2.47000000	      4.90251026	     -5.30498368	      5.19363058	      0.73135887	      0.89743364	      1.01216608	      1.45304668	      8.36274187	    -18.71347236	    -19.89099591	     -0.34716337	      9.02878134	      1.56612654	     -4.15780546	     10.46337531	     10.49215781	      4.88145326	    -54.26325462	     -0.94707246	      3.67902963	      1.75518734	    -11.97731825	     -9.75133039	      7.17858607	      2.06669215	     10.29273047	    -11.49337152	     11.67493893	     14.50745967	     89.95437384	      0.00000000	      0.00000000	      1.54824216	      8.83943085	    -21.12544338	     16.17326950	     89.95437384	      0.00000000	      0.00000000
